<svg width="56" height="56" viewBox="0 0 56 56" fill="none" xmlns="http://www.w3.org/2000/svg">
<g clip-path="url(#clip0_989_5160)">
<path d="M27.9048 0C14.6832 0 14.5412 5.13215 14.5412 6.18851C14.5412 7.79113 14.5412 12.6 14.5412 12.6H28.1593V14.5249C28.1593 14.5249 13.9801 14.5249 9.13207 14.5249C5.08531 14.5249 0 16.9853 0 27.8885C0 37.9039 3.96684 41.777 7.97033 41.777C9.15905 41.777 12.7273 41.777 12.7273 41.777C12.7273 41.777 12.7273 36.8057 12.7273 35.0952C12.7273 32.2998 14.1125 27.1249 20.5703 27.1249C28.67 27.1249 30.7374 27.1249 34.077 27.1249C36.0635 27.1249 41.6655 26.2615 41.6655 19.7909C41.6655 12.9426 41.6655 10.6833 41.6655 7.46124C41.666 5.85607 41.3916 0 27.9048 0ZM20.3957 4.31149C21.7509 4.31149 22.846 5.40604 22.846 6.76174C22.846 8.11644 21.7509 9.212 20.3957 9.212C19.0405 9.212 17.9455 8.11695 17.9455 6.76174C17.9455 5.40604 19.0405 4.31149 20.3957 4.31149Z" fill="url(#paint0_linear_989_5160)"/>
<path d="M28.0952 55.9999C41.3107 55.9999 41.4751 50.771 41.4751 49.8114C41.4751 48.2088 41.4751 43.3999 41.4751 43.3999H27.8407V41.475C27.8407 41.475 42.1115 41.475 46.868 41.475C50.9453 41.475 56 38.953 56 28.1114C56 16.2384 50.6352 14.2229 48.0297 14.2229C46.8405 14.2229 43.2727 14.2229 43.2727 14.2229C43.2727 14.2229 43.2727 19.4238 43.2727 20.9047C43.2727 23.7001 41.9333 28.875 35.4297 28.875C27.3301 28.875 25.5146 28.875 21.9225 28.875C19.9411 28.875 14.334 29.8403 14.334 36.209C14.334 43.5781 14.334 45.5076 14.334 48.5387C14.334 51.2012 15.961 55.9999 28.0952 55.9999ZM35.6048 51.6884C34.2496 51.6884 33.1546 50.5934 33.1546 49.2382C33.1546 47.883 34.2491 46.7879 35.6048 46.7879C36.9595 46.7879 38.0551 47.883 38.0551 49.2382C38.0551 50.5934 36.9595 51.6884 35.6048 51.6884Z" fill="url(#paint1_linear_989_5160)"/>
</g>
<defs>
<linearGradient id="paint0_linear_989_5160" x1="5.24796" y1="5.00243" x2="33.0838" y2="32.9314" gradientUnits="userSpaceOnUse">
<stop stop-color="#387EB8"/>
<stop offset="1" stop-color="#366994"/>
</linearGradient>
<linearGradient id="paint1_linear_989_5160" x1="22.1643" y1="22.8464" x2="52.0083" y2="51.4384" gradientUnits="userSpaceOnUse">
<stop stop-color="#FFE052"/>
<stop offset="1" stop-color="#FFC331"/>
</linearGradient>
<clipPath id="clip0_989_5160">
<rect width="56" height="56" fill="white"/>
</clipPath>
</defs>
</svg>
