<svg width="24" height="24" viewBox="0 0 24 24" fill="none" xmlns="http://www.w3.org/2000/svg">
<g clip-path="url(#clip0_1180_8096)">
<path fill-rule="evenodd" clip-rule="evenodd" d="M24 12C24 18.6274 18.6274 24 12 24C9.92479 24 7.97261 23.4732 6.26988 22.5461L0 24L1.55869 17.9185C0.566569 16.172 0 14.1522 0 12C0 5.37258 5.37258 0 12 0C18.6274 0 24 5.37258 24 12Z" fill="white"/>
<path fill-rule="evenodd" clip-rule="evenodd" d="M11.9996 22.2857C17.6802 22.2857 22.2853 17.6806 22.2853 11.9999C22.2853 6.3193 17.6802 1.71423 11.9996 1.71423C6.31894 1.71423 1.71387 6.3193 1.71387 11.9999C1.71387 14.1933 2.40037 16.2262 3.57023 17.8957L2.64893 21.3506L6.16472 20.4717C7.82263 21.6157 9.83287 22.2857 11.9996 22.2857ZM7.93434 5.90551C8.34175 5.90199 8.7358 5.89857 8.9996 6.42842C9.22785 6.88687 9.50853 7.67396 9.83983 8.6142L9.84413 8.6264C9.92149 8.84569 10.0423 9.18809 9.88353 9.41503C9.72181 9.64622 9.36121 10.1115 9.10005 10.4128C9.03315 10.49 8.89909 10.6666 9.08178 10.9545C9.1272 11.0261 9.1664 11.0994 9.20959 11.1802C9.38358 11.5056 9.62236 11.9523 10.5934 12.8936C11.5735 13.8437 12.8031 14.3906 13.2566 14.5726C13.3798 14.6425 13.676 14.7361 13.8746 14.5512C13.9659 14.4662 14.138 14.2464 14.3257 14.0066C14.5461 13.7251 14.788 13.4161 14.946 13.2655C14.9508 13.2612 14.9557 13.2567 14.9607 13.2521C15.0664 13.1551 15.234 13.0015 15.542 13.1249C15.8117 13.2328 16.8465 13.7308 17.6281 14.107C17.7818 14.1809 17.9257 14.2502 18.0521 14.3108C18.1764 14.3502 18.3567 14.4953 18.3567 14.7859C18.3567 15.4418 17.8924 17.3837 15.6358 17.4239C13.3791 17.4641 10.6608 16.2838 8.59194 14.0023C6.44825 11.6383 5.81208 10.0579 5.81208 8.61419C5.81208 6.85262 7.04423 5.90609 7.83445 5.90609C7.86779 5.90609 7.90111 5.9058 7.93434 5.90551Z" fill="url(#paint0_linear_1180_8096)"/>
</g>
<defs>
<linearGradient id="paint0_linear_1180_8096" x1="20.9995" y1="4.28565" x2="1.7138" y2="22.2856" gradientUnits="userSpaceOnUse">
<stop stop-color="#5BD066"/>
<stop offset="1" stop-color="#27B43E"/>
</linearGradient>
<clipPath id="clip0_1180_8096">
<rect width="24" height="24" fill="white"/>
</clipPath>
</defs>
</svg>
